<svg width="1200" height="243" viewBox="0 0 1200 243" fill="none" xmlns="http://www.w3.org/2000/svg">
<path d="M44.3835 33H133.151V210.534H44.3835V33Z" fill="#71CB63"/>
<path d="M133.151 89.2192H177.534V210.534H133.151V89.2192Z" fill="#42A345"/>
<path d="M144.986 101.055H162.74V118.808H144.986V101.055Z" fill="#156D13"/>
<path d="M144.986 130.644H162.74V148.397H144.986V130.644Z" fill="#156D13"/>
<path d="M144.986 160.233H162.74V177.986H144.986V160.233Z" fill="#156D13"/>
<path d="M0 89.2192H44.3836V210.534H0V89.2192Z" fill="#42A345"/>
<path d="M14.7946 101.055H32.548V118.808H14.7946V101.055Z" fill="#156D13"/>
<path d="M56.2191 95.137H68.0547V106.973H56.2191V95.137Z" fill="#297E22"/>
<path d="M82.8494 95.137H94.685V106.973H82.8494V95.137Z" fill="#297E22"/>
<path d="M109.479 95.137H121.315V106.973H109.479V95.137Z" fill="#297E22"/>
<path d="M56.2191 118.808H68.0547V130.644H56.2191V118.808Z" fill="#297E22"/>
<path d="M82.8494 118.808H94.685V130.644H82.8494V118.808Z" fill="#297E22"/>
<path d="M109.479 118.808H121.315V130.644H109.479V118.808Z" fill="#297E22"/>
<path d="M56.2191 142.479H68.0547V154.315H56.2191V142.479Z" fill="#297E22"/>
<path d="M82.8494 142.479H94.685V154.315H82.8494V142.479Z" fill="#297E22"/>
<path d="M109.479 142.479H121.315V154.315H109.479V142.479Z" fill="#297E22"/>
<path d="M14.7946 130.644H32.548V148.397H14.7946V130.644Z" fill="#156D13"/>
<path d="M14.7946 160.233H32.548V177.986H14.7946V160.233Z" fill="#156D13"/>
<path d="M106.521 59.63H94.6849V47.7944H82.8493V59.63H71.0137V71.4657H82.8493V83.3013H94.6849V71.4657H106.521V59.63Z" fill="#D55B5B"/>
<path d="M76.9315 172.068H100.603V210.534H76.9315V172.068Z" fill="#3A4249"/>
<path d="M68.0548 169.11H109.479V175.027H68.0548V169.11Z" fill="#3A4249"/>
<path d="M118.356 192.781H124.274V198.699H118.356V192.781Z" fill="#3A4249"/>
<path d="M118.356 180.945H124.274V186.863H118.356V180.945Z" fill="#3A4249"/>
<path d="M118.356 169.11H124.274V175.027H118.356V169.11Z" fill="#3A4249"/>
<path d="M308.6 210.4C298.067 210.4 288.4 208.533 279.6 204.8C270.8 200.933 263.133 195.6 256.6 188.8C250.2 181.867 245.2 173.733 241.6 164.4C238 155.067 236.2 144.8 236.2 133.6C236.2 122.4 238 112.133 241.6 102.8C245.2 93.4667 250.2 85.3333 256.6 78.4C263.133 71.4667 270.8 66.1333 279.6 62.4C288.4 58.5333 298.067 56.6 308.6 56.6C318.733 56.6 327.8 58.4 335.8 62C343.933 65.6 350.733 70.2667 356.2 76C361.8 81.6 365.8 87.5333 368.2 93.8L353.2 100.4C349.467 91.7333 343.733 84.8 336 79.6C328.4 74.2667 319.267 71.6 308.6 71.6C297.667 71.6 287.933 74.2 279.4 79.4C270.867 84.6 264.2 91.8667 259.4 101.2C254.6 110.4 252.2 121.2 252.2 133.6C252.2 145.867 254.6 156.667 259.4 166C264.2 175.333 270.867 182.6 279.4 187.8C287.933 192.867 297.667 195.4 308.6 195.4C319.267 195.4 328.4 192.8 336 187.6C343.733 182.4 349.467 175.467 353.2 166.8L368.2 173.4C365.8 179.533 361.8 185.467 356.2 191.2C350.733 196.8 343.933 201.4 335.8 205C327.8 208.6 318.733 210.4 308.6 210.4ZM423.697 210.4C416.897 210.4 410.83 209.133 405.497 206.6C400.164 203.933 395.964 200.333 392.897 195.8C389.83 191.267 388.297 186.067 388.297 180.2C388.297 174.6 389.497 169.533 391.897 165C394.297 160.333 398.03 156.4 403.097 153.2C408.164 150 414.63 147.733 422.497 146.4L464.497 139.4V153L426.097 159.4C418.364 160.733 412.764 163.2 409.297 166.8C405.964 170.4 404.297 174.667 404.297 179.6C404.297 184.4 406.164 188.467 409.897 191.8C413.764 195.133 418.697 196.8 424.697 196.8C432.03 196.8 438.43 195.267 443.897 192.2C449.364 189 453.63 184.733 456.697 179.4C459.764 174.067 461.297 168.133 461.297 161.6V134.4C461.297 128 458.964 122.8 454.297 118.8C449.63 114.8 443.564 112.8 436.097 112.8C429.564 112.8 423.83 114.467 418.897 117.8C413.964 121 410.297 125.2 407.897 130.4L394.297 123C396.297 118.467 399.43 114.333 403.697 110.6C408.097 106.867 413.097 103.933 418.697 101.8C424.297 99.5333 430.097 98.4 436.097 98.4C443.964 98.4 450.897 99.9333 456.897 103C463.03 106.067 467.764 110.333 471.097 115.8C474.564 121.133 476.297 127.333 476.297 134.4V208H461.297V186.6L463.497 188.8C461.63 192.8 458.697 196.467 454.697 199.8C450.83 203 446.23 205.6 440.897 207.6C435.697 209.467 429.964 210.4 423.697 210.4ZM507.15 208V100.8H522.15V118.4L520.15 115.8C522.683 110.733 526.483 106.733 531.55 103.8C536.75 100.867 543.017 99.4 550.35 99.4H557.15V114.4H547.75C540.017 114.4 533.817 116.8 529.15 121.6C524.483 126.4 522.15 133.2 522.15 142V208H507.15ZM623.528 210.4C613.528 210.4 604.461 208 596.328 203.2C588.328 198.267 581.995 191.533 577.328 183C572.661 174.467 570.328 164.8 570.328 154C570.328 143.2 572.595 133.667 577.128 125.4C581.661 117 587.795 110.4 595.528 105.6C603.395 100.8 612.195 98.4 621.928 98.4C629.661 98.4 636.528 99.8667 642.528 102.8C648.661 105.6 653.861 109.467 658.128 114.4C662.395 119.2 665.661 124.667 667.928 130.8C670.195 136.8 671.328 143 671.328 149.4C671.328 150.733 671.261 152.267 671.128 154C670.995 155.6 670.795 157.267 670.528 159H579.928V145H661.928L654.728 151C655.928 143.667 655.061 137.133 652.128 131.4C649.328 125.533 645.261 120.933 639.928 117.6C634.595 114.133 628.595 112.4 621.928 112.4C615.261 112.4 609.061 114.133 603.328 117.6C597.728 121.067 593.328 125.933 590.128 132.2C586.928 138.333 585.661 145.667 586.328 154.2C585.661 162.733 586.995 170.2 590.328 176.6C593.795 182.867 598.461 187.733 604.328 191.2C610.328 194.667 616.728 196.4 623.528 196.4C631.395 196.4 637.995 194.533 643.328 190.8C648.661 187.067 652.995 182.4 656.328 176.8L669.128 183.6C666.995 188.4 663.728 192.867 659.328 197C654.928 201 649.661 204.267 643.528 206.8C637.528 209.2 630.861 210.4 623.528 210.4ZM734.975 210.4C724.708 210.4 715.708 207.8 707.975 202.6C700.242 197.4 694.642 190.333 691.175 181.4L703.775 175.4C706.842 181.933 711.108 187.133 716.575 191C722.175 194.867 728.308 196.8 734.975 196.8C741.375 196.8 746.775 195.267 751.175 192.2C755.575 189 757.775 184.867 757.775 179.8C757.775 176.067 756.708 173.133 754.575 171C752.442 168.733 749.975 167 747.175 165.8C744.375 164.6 741.908 163.733 739.775 163.2L724.375 158.8C714.508 156 707.375 152.067 702.975 147C698.575 141.933 696.375 136.067 696.375 129.4C696.375 123.133 697.975 117.667 701.175 113C704.375 108.333 708.708 104.733 714.175 102.2C719.642 99.6667 725.708 98.4 732.375 98.4C741.442 98.4 749.642 100.8 756.975 105.6C764.442 110.267 769.708 116.8 772.775 125.2L759.975 131.2C757.308 125.2 753.442 120.533 748.375 117.2C743.442 113.733 737.908 112 731.775 112C725.775 112 720.975 113.533 717.375 116.6C713.775 119.667 711.975 123.533 711.975 128.2C711.975 131.8 712.908 134.667 714.775 136.8C716.642 138.933 718.775 140.533 721.175 141.6C723.708 142.667 725.908 143.467 727.775 144L745.575 149.2C754.242 151.733 760.975 155.667 765.775 161C770.708 166.333 773.175 172.6 773.175 179.8C773.175 185.667 771.508 190.933 768.175 195.6C764.975 200.267 760.508 203.933 754.775 206.6C749.042 209.133 742.442 210.4 734.975 210.4Z" fill="white"/>
<path d="M851 216.4C840.467 216.4 831.2 214.2 823.2 209.8C815.2 205.4 809 199.4 804.6 191.8C800.2 184.067 798 175.267 798 165.4V65H814V165.4C814 172.6 815.533 178.933 818.6 184.4C821.8 189.733 826.133 193.933 831.6 197C837.2 199.933 843.667 201.4 851 201.4C858.333 201.4 864.733 199.933 870.2 197C875.8 193.933 880.133 189.733 883.2 184.4C886.4 178.933 888 172.6 888 165.4V65H904V165.4C904 175.267 901.8 184.067 897.4 191.8C893 199.4 886.8 205.4 878.8 209.8C870.933 214.2 861.667 216.4 851 216.4Z" fill="#24AE7C"/>
</svg>
